[CENTER][url=http://www.imagefreeks.com/share.php?id=0B91_4CC67956][img]http://www.imagefreeks.com/image.php?id=0B91_4CC67956&jpg[/img][/url]


[SIZE="4"][COLOR="Magenta"]Infos:[/COLOR][/SIZE]

[code]
General
Complete name                    : Ocean Eleven Dual Audio Eng Hindi.avi
Format                           : AVI
Format/Info                      : Audio Video Interleave
Format profile                   : OpenDML
File size                        : 855 MiB
Duration                         : 1h 51mn
Overall bit rate                 : 1 069 Kbps
Writing application              : AVI-Mux GUI 1.17.7, Aug  8 2006  20:59:17

Video
ID                               : 0
Format                           : MPEG-4 Visual
Format profile                   : AdvancedSimple@L5
Format settings, BVOP            : Yes
Format settings, QPel            : No
Format settings, GMC             : No warppoints
Format settings, Matrix          : Default (H.263)
Codec ID                         : DX50
Codec ID/Hint                    : DivX 5
Duration                         : 1h 51mn
Bit rate                         : 756 Kbps
Width                            : 608 pixels
Height                           : 246 pixels
Display aspect ratio             : 2.472
Frame rate                       : 25.000 fps
Resolution                       : 24 bits
Colorimetry                      : 4:2:0
Scan type                        : Progressive
Bits/(Pixel*Frame)               : 0.202
Stream size                      : 605 MiB (71%)
Writing library                  : XviD 1.0.3 (UTC 2004-12-20)

Audio #1
ID                               : 1
Format                           : MPEG Audio
Format version                   : Version 1
Format profile                   : Layer 3
Codec ID                         : 55
Codec ID/Hint                    : MP3
Duration                         : 1h 51mn
Bit rate mode                    : Constant
Bit rate                         : 112 Kbps
Channel(s)                       : 2 channels
Sampling rate                    : 48.0 KHz
Resolution                       : 16 bits
Stream size                      : 89.6 MiB (10%)
Alignment                        : Aligned on interleaves
Interleave, duration             : 778 ms (19.46 video frames)
Interleave, preload duration     : 216 ms

Audio #2
ID                               : 2
Format                           : MPEG Audio
Format version                   : Version 1
Format profile                   : Layer 3
Codec ID                         : 55
Codec ID/Hint                    : MP3
Duration                         : 1h 51mn
Bit rate mode                    : Constant
Bit rate                         : 192 Kbps
Channel(s)                       : 2 channels
Sampling rate                    : 44.1 KHz
Resolution                       : 16 bits
Stream size                      : 154 MiB (18%)
Alignment                        : Aligned on interleaves
Interleave, duration             : 26 ms (0.65 video frame)
Interleave, preload duration     : 182 ms
Title                            : Hindi Track




General
Complete name                    : Ocean Twelve Hindi DVDrip.avi
Format                           : AVI
Format/Info                      : Audio Video Interleave
Format profile                   : OpenDML
File size                        : 925 MiB
Duration                         : 2h 2mn
Overall bit rate                 : 1 055 Kbps
Writing application              : AVI-Mux GUI 1.17.7, Aug  8 2006  20:59:17

Video
ID                               : 0
Format                           : MPEG-4 Visual
Format profile                   : AdvancedSimple@L5
Format settings, BVOP            : Yes
Format settings, QPel            : No
Format settings, GMC             : No warppoints
Format settings, Matrix          : Default (H.263)
Codec ID                         : DX50
Codec ID/Hint                    : DivX 5
Duration                         : 2h 2mn
Bit rate                         : 681 Kbps
Width                            : 608 pixels
Height                           : 246 pixels
Display aspect ratio             : 2.472
Frame rate                       : 25.000 fps
Resolution                       : 24 bits
Colorimetry                      : 4:2:0
Scan type                        : Progressive
Bits/(Pixel*Frame)               : 0.182
Stream size                      : 597 MiB (64%)
Writing library                  : XviD 1.0.3 (UTC 2004-12-20)

Audio #1
ID                               : 1
Format                           : MPEG Audio
Format version                   : Version 1
Format profile                   : Layer 3
Codec ID                         : 55
Codec ID/Hint                    : MP3
Duration                         : 2h 0mn
Bit rate mode                    : Constant
Bit rate                         : 112 Kbps
Channel(s)                       : 2 channels
Sampling rate                    : 48.0 KHz
Resolution                       : 16 bits
Stream size                      : 96.4 MiB (10%)
Alignment                        : Aligned on interleaves
Interleave, duration             : 809 ms (20.24 video frames)
Interleave, preload duration     : 216 ms

Audio #2
ID                               : 2
Format                           : MPEG Audio
Format version                   : Version 1
Format profile                   : Layer 3
Codec ID                         : 55
Codec ID/Hint                    : MP3
Duration                         : 2h 2mn
Bit rate mode                    : Constant
Bit rate                         : 256 Kbps
Channel(s)                       : 2 channels
Sampling rate                    : 44.1 KHz
Resolution                       : 16 bits
Stream size                      : 224 MiB (24%)
Alignment                        : Aligned on interleaves
Interleave, duration             : 26 ms (0.65 video frame)
Interleave, preload duration     : 182 ms
Title                            : Untitled



General
Complete name                    : Oceans 13 Hindi DVDRIP.avi
Format                           : AVI
Format/Info                      : Audio Video Interleave
Format profile                   : OpenDML
File size                        : 805 MiB
Duration                         : 2h 2mn
Overall bit rate                 : 921 Kbps
Writing application              : AVI-Mux GUI 1.17.8, Aug 30 2008  12:36:58

Video
ID                               : 0
Format                           : MPEG-4 Visual
Format profile                   : AdvancedSimple@L5
Format settings, BVOP            : Yes
Format settings, QPel            : No
Format settings, GMC             : No warppoints
Format settings, Matrix          : Default (H.263)
Codec ID                         : DX50
Codec ID/Hint                    : DivX 5
Duration                         : 2h 2mn
Bit rate                         : 682 Kbps
Width                            : 620 pixels
Height                           : 256 pixels
Display aspect ratio             : 2.40:1
Frame rate                       : 23.976 fps
Resolution                       : 24 bits
Colorimetry                      : 4:2:0
Scan type                        : Progressive
Bits/(Pixel*Frame)               : 0.179
Stream size                      : 595 MiB (74%)
Writing library                  : XviD 1.0.3 (UTC 2004-12-20)

Audio #1
ID                               : 1
Format                           : MPEG Audio
Format version                   : Version 1
Format profile                   : Layer 3
Codec ID                         : 55
Codec ID/Hint                    : MP3
Duration                         : 1h 58mn
Bit rate mode                    : Constant
Bit rate                         : 128 Kbps
Channel(s)                       : 2 channels
Sampling rate                    : 44.1 KHz
Resolution                       : 16 bits
Stream size                      : 108 MiB (13%)
Alignment                        : Aligned on interleaves
Interleave, duration             : 872 ms (20.90 video frames)
Interleave, preload duration     : 208 ms
Title                            : hindi
Writing library                  : LAME3.96.1

Audio #2
ID                               : 2
Format                           : MPEG Audio
Format version                   : Version 1
Format profile                   : Layer 3
Codec ID                         : 55
Codec ID/Hint                    : MP3
Duration                         : 2h 2mn
Bit rate mode                    : Constant
Bit rate                         : 112 Kbps
Channel(s)                       : 2 channels
Sampling rate                    : 48.0 KHz
Resolution                       : 16 bits
Stream size                      : 97.8 MiB (12%)
Alignment                        : Aligned on interleaves
Interleave, duration             : 843 ms (20.22 video frames)
Interleave, preload duration     : 216 ms




[/code]


[COLOR="Magenta"][SIZE="5"]Screens:[/SIZE][/COLOR]

[url=http://www.imagefreeks.com/share.php?id=3475_4CC67956][img]http://www.imagefreeks.com/image.php?id=3475_4CC67956&jpg[/img][/url]
[url=http://www.imagefreeks.com/share.php?id=8954_4CC67956][img]http://www.imagefreeks.com/image.php?id=8954_4CC67956&jpg[/img][/url]
[url=http://www.imagefreeks.com/share.php?id=CF12_4CC67956][img]http://www.imagefreeks.com/image.php?id=CF12_4CC67956&jpg[/img][/url]